<?xml version="1.0" encoding="UTF-8"?>
<svg id="Calque_1" xmlns="http://www.w3.org/2000/svg" version="1.1" viewBox="0 0 482.24 163.52">
  <!-- Generator: Adobe Illustrator 29.7.1, SVG Export Plug-In . SVG Version: 2.1.1 Build 8)  -->
  <defs>
    <style>
      .st0 {
        fill: #ff5600;
      }

      .st1 {
        fill: #101828;
      }

      .st2 {
        fill: #fda800;
      }
    </style>
  </defs>
  <path class="st0" d="M69.68,150.61L103.54,23.14h39.43l-33.06,127.47h-40.23Z"/>
  <path class="st2" d="M68.17,119.91h4.01c-10.49,0-17.2-.75-25.3-5.33-8.1-4.58-14.47-11.08-19.12-19.52-4.65-8.43-6.97-18.42-6.97-29.97,0-7.04.6-14.27,1.79-21.71,1.19-7.44,2.99-14.74,5.38-21.91h38.24c-2.26,7.7-4.02,15.17-5.28,22.41-1.26,7.24-1.89,13.71-1.89,19.42,0,7.04,1.36,12.05,4.08,15.04,2.72,2.99,6.6,4.48,11.65,4.48h3.98l-10.58,37.09"/>
  <g>
    <path class="st1" d="M177.42,124.2c-6.18,0-11.63-1.17-16.35-3.5-4.72-2.33-8.46-5.51-11.2-9.53-2.74-4.03-4.11-8.6-4.11-13.73s1.34-10,4.02-13.91c2.68-3.9,6.41-6.97,11.2-9.18,4.78-2.21,10.44-3.32,16.97-3.32,9.21,0,16.53,2.25,21.95,6.74,5.42,4.49,8.13,10.64,8.13,18.46,0,8.63-2.74,15.46-8.22,20.47-5.48,5.01-12.94,7.52-22.39,7.52ZM224.13,122.27h-23.79v-19.07h-2.45v-34.64c0-3.73-1.02-6.61-3.06-8.66-2.04-2.04-4.87-3.06-8.49-3.06-3.03,0-5.54.7-7.52,2.1-1.98,1.4-3.21,3.32-3.67,5.77h-25.02c.35-5.6,2.13-10.55,5.33-14.87,3.21-4.31,7.46-7.76,12.77-10.32s11.28-3.85,17.93-3.85c11.9,0,21.19,3.23,27.9,9.71,6.71,6.47,10.06,15.43,10.06,26.86v50.03ZM184.07,107.05c4.08,0,7.41-.99,9.97-2.97,2.56-1.98,3.85-4.55,3.85-7.7s-1.28-5.66-3.85-7.53c-2.57-1.86-5.89-2.8-9.97-2.8s-7.23.96-9.8,2.89c-2.57,1.92-3.85,4.46-3.85,7.61s1.25,5.69,3.76,7.61c2.51,1.92,5.8,2.89,9.88,2.89Z"/>
    <path class="st1" d="M238.47,122.27V37.6h23.97v20.47l-7,12.59c0-10.61,2.65-19.09,7.96-25.45,5.3-6.36,12.33-9.54,21.08-9.54s15.71,3.12,20.9,9.36c5.19,6.24,7.78,14.49,7.78,24.75l-12.42,4.2c0-8.63,1.31-15.74,3.93-21.34,2.62-5.6,6.21-9.82,10.76-12.68s9.62-4.29,15.22-4.29c9.68,0,17.26,3.15,22.74,9.45s8.22,15.05,8.22,26.24v50.91h-26.59v-48.98c0-3.85-.99-6.91-2.97-9.18-1.98-2.28-4.61-3.41-7.87-3.41s-5.89,1.13-7.87,3.41c-1.98,2.27-2.97,5.33-2.97,9.18v48.98h-26.59v-48.98c0-3.85-.99-6.91-2.97-9.18-1.98-2.28-4.61-3.41-7.87-3.41s-5.89,1.13-7.87,3.41c-1.98,2.27-2.97,5.33-2.97,9.18v48.98h-26.59Z"/>
    <path class="st1" d="M419,124.2c-8.63,0-16.44-1.95-23.44-5.86s-12.54-9.18-16.62-15.83c-4.09-6.65-6.12-14.11-6.12-22.39s2.04-15.94,6.12-22.65c4.08-6.71,9.62-12.01,16.62-15.92,7-3.9,14.81-5.86,23.44-5.86s16.59,1.95,23.53,5.86c6.94,3.91,12.45,9.21,16.53,15.92,4.08,6.71,6.13,14.2,6.13,22.48s-2.05,15.78-6.13,22.48c-4.08,6.71-9.59,12.01-16.53,15.92-6.94,3.91-14.79,5.86-23.53,5.86ZM419,59.64c-3.73,0-7.11.91-10.15,2.72s-5.45,4.26-7.26,7.34c-1.81,3.09-2.71,6.5-2.71,10.23s.9,7.15,2.71,10.24c1.81,3.09,4.23,5.54,7.26,7.34,3.03,1.81,6.41,2.72,10.15,2.72s7.11-.9,10.15-2.72c3.03-1.8,5.45-4.25,7.26-7.34,1.81-3.09,2.72-6.5,2.72-10.24s-.91-7.14-2.72-10.23c-1.81-3.09-4.23-5.54-7.26-7.34s-6.41-2.72-10.15-2.72Z"/>
  </g>
</svg>